<svg width="14" height="14" viewBox="0 0 14 14" fill="none" xmlns="http://www.w3.org/2000/svg">
<path d="M7.00002 1.16602C10.2218 1.16602 12.8334 3.7776 12.8334 6.99935C12.8334 10.2211 10.2218 12.8327 7.00002 12.8327C3.77827 12.8327 1.16669 10.2211 1.16669 6.99935C1.16669 3.7776 3.77827 1.16602 7.00002 1.16602ZM9.33335 6.41602H4.66669C4.51198 6.41602 4.3636 6.47747 4.25421 6.58687C4.14481 6.69627 4.08335 6.84464 4.08335 6.99935C4.08335 7.15406 4.14481 7.30243 4.25421 7.41183C4.3636 7.52122 4.51198 7.58268 4.66669 7.58268H9.33335C9.48806 7.58268 9.63644 7.52122 9.74583 7.41183C9.85523 7.30243 9.91669 7.15406 9.91669 6.99935C9.91669 6.84464 9.85523 6.69627 9.74583 6.58687C9.63644 6.47747 9.48806 6.41602 9.33335 6.41602Z" fill="#FF4B4B"/>
</svg>
