<svg width="14" height="14" viewBox="0 0 14 14" fill="none" xmlns="http://www.w3.org/2000/svg">
<path d="M11.0833 6.41732H7.58331V2.91732C7.58331 2.76261 7.52185 2.61424 7.41246 2.50484C7.30306 2.39544 7.15469 2.33398 6.99998 2.33398C6.84527 2.33398 6.6969 2.39544 6.5875 2.50484C6.4781 2.61424 6.41665 2.76261 6.41665 2.91732V6.41732H2.91665C2.76194 6.41732 2.61356 6.47878 2.50417 6.58817C2.39477 6.69757 2.33331 6.84594 2.33331 7.00065C2.33331 7.15536 2.39477 7.30373 2.50417 7.41313C2.61356 7.52253 2.76194 7.58398 2.91665 7.58398H6.41665V11.084C6.41665 11.2387 6.4781 11.3871 6.5875 11.4965C6.6969 11.6059 6.84527 11.6673 6.99998 11.6673C7.15469 11.6673 7.30306 11.6059 7.41246 11.4965C7.52185 11.3871 7.58331 11.2387 7.58331 11.084V7.58398H11.0833C11.238 7.58398 11.3864 7.52253 11.4958 7.41313C11.6052 7.30373 11.6666 7.15536 11.6666 7.00065C11.6666 6.84594 11.6052 6.69757 11.4958 6.58817C11.3864 6.47878 11.238 6.41732 11.0833 6.41732Z" fill="#767676"/>
</svg>
