<svg width="20" height="20" viewBox="0 0 20 20" fill="none" xmlns="http://www.w3.org/2000/svg">
<path d="M9.99996 1.66602C14.6025 1.66602 18.3333 5.39685 18.3333 9.99935C18.3333 14.6018 14.6025 18.3327 9.99996 18.3327C5.39746 18.3327 1.66663 14.6018 1.66663 9.99935C1.66663 5.39685 5.39746 1.66602 9.99996 1.66602ZM9.99996 3.33268C8.23185 3.33268 6.53616 4.03506 5.28591 5.2853C4.03567 6.53555 3.33329 8.23124 3.33329 9.99935C3.33329 11.7675 4.03567 13.4632 5.28591 14.7134C6.53616 15.9636 8.23185 16.666 9.99996 16.666C11.7681 16.666 13.4638 15.9636 14.714 14.7134C15.9642 13.4632 16.6666 11.7675 16.6666 9.99935C16.6666 8.23124 15.9642 6.53555 14.714 5.2853C13.4638 4.03506 11.7681 3.33268 9.99996 3.33268ZM9.99996 4.99935C10.2041 4.99938 10.4011 5.07431 10.5536 5.20994C10.7061 5.34558 10.8036 5.53247 10.8275 5.73518L10.8333 5.83268V9.65435L13.0891 11.9102C13.2386 12.0601 13.3254 12.2614 13.3318 12.473C13.3383 12.6846 13.2639 12.8908 13.1239 13.0496C12.9839 13.2084 12.7887 13.3079 12.5779 13.328C12.3671 13.3481 12.1566 13.2872 11.9891 13.1577L11.9108 13.0885L9.41079 10.5885C9.28128 10.4589 9.19809 10.2902 9.17413 10.1085L9.16663 9.99935V5.83268C9.16663 5.61167 9.25442 5.39971 9.4107 5.24343C9.56698 5.08715 9.77894 4.99935 9.99996 4.99935Z" fill="#767676"/>
</svg>
