<svg width="20" height="20" viewBox="0 0 20 20" fill="none" xmlns="http://www.w3.org/2000/svg">
<path d="M15.8333 3C15.1892 3 14.6667 3.62988 14.6667 4.40625V16.5938C14.6667 17.3701 15.1892 18 15.8333 18C16.4774 18 17 17.3701 17 16.5938V4.40625C17 3.62988 16.4774 3 15.8333 3ZM10.7778 8.15625V16.5938C10.7778 17.3701 11.3003 18 11.9444 18C12.5885 18 13.1111 17.3701 13.1111 16.5938V8.15625C13.1111 7.37988 12.5885 6.75 11.9444 6.75C11.3003 6.75 10.7778 7.37988 10.7778 8.15625ZM8.05556 10.5C7.41146 10.5 6.88889 11.1299 6.88889 11.9062V16.5938C6.88889 17.3701 7.41146 18 8.05556 18C8.69965 18 9.22222 17.3701 9.22222 16.5938V11.9062C9.22222 11.1299 8.69965 10.5 8.05556 10.5ZM4.16667 14.25C3.52257 14.25 3 14.8799 3 15.6562V16.5938C3 17.3701 3.52257 18 4.16667 18C4.81076 18 5.33333 17.3701 5.33333 16.5938V15.6562C5.33333 14.8799 4.81076 14.25 4.16667 14.25Z" fill="#767676"/>
</svg>
