<svg width="16" height="17" viewBox="0 0 16 17" fill="none" xmlns="http://www.w3.org/2000/svg">
<path d="M4.59044 3.45117H3.7714C3.33695 3.45117 2.92029 3.62376 2.61309 3.93096C2.30589 4.23816 2.1333 4.65482 2.1333 5.08927V12.4607C2.1333 12.8951 2.30589 13.3118 2.61309 13.619C2.92029 13.9262 3.33695 14.0988 3.7714 14.0988H11.1428C11.5773 14.0988 11.9939 13.9262 12.3011 13.619C12.6083 13.3118 12.7809 12.8951 12.7809 12.4607V11.6417" stroke="#767676" stroke-linecap="round" stroke-linejoin="round"/>
<path d="M10.3242 3.94335L12.2899 5.90904M13.1974 4.98189C13.4554 4.72383 13.6004 4.37382 13.6004 4.00887C13.6004 3.64392 13.4554 3.29391 13.1974 3.03585C12.9393 2.77779 12.5893 2.63281 12.2244 2.63281C11.8594 2.63281 11.5094 2.77779 11.2513 3.03585L5.73755 8.52997V10.4957H7.70325L13.1974 4.98189Z" stroke="#767676" stroke-linecap="round" stroke-linejoin="round"/>
</svg>
